<svg xmlns="http://www.w3.org/2000/svg" viewBox="180 100 660 800" aria-hidden="true">
  <g stroke="#ffffff" stroke-width="18" stroke-linecap="round" fill="none">
    <line x1="588" y1="164" x2="778" y2="282"/>
    <line x1="588" y1="164" x2="456" y2="354"/>
    <line x1="284" y1="354" x2="456" y2="354"/>
    <line x1="778" y1="282" x2="714" y2="520"/>
    <line x1="778" y1="282" x2="542" y2="536"/>
    <line x1="284" y1="354" x2="400" y2="548"/>
    <line x1="456" y1="354" x2="542" y2="536"/>
    <line x1="456" y1="354" x2="714" y2="520"/>
    <line x1="714" y1="520" x2="542" y2="536"/>
    <line x1="542" y1="536" x2="400" y2="548"/>
    <line x1="714" y1="520" x2="400" y2="548"/>
    <line x1="714" y1="520" x2="680" y2="738"/>
    <line x1="542" y1="536" x2="680" y2="738"/>
    <line x1="542" y1="536" x2="402" y2="830"/>
    <line x1="714" y1="520" x2="402" y2="830"/>
    <line x1="400" y1="548" x2="240" y2="762"/>
    <line x1="680" y1="738" x2="402" y2="830"/>
    <line x1="240" y1="762" x2="402" y2="830"/>
  </g>
  <g fill="#ffffff">
    <circle cx="588" cy="164" r="33"/>
    <circle cx="778" cy="282" r="35"/>
    <circle cx="284" cy="354" r="35"/>
    <circle cx="456" cy="354" r="33"/>
    <circle cx="714" cy="520" r="35"/>
    <circle cx="542" cy="536" r="35"/>
    <circle cx="400" cy="548" r="28"/>
    <circle cx="680" cy="738" r="35"/>
    <circle cx="240" cy="762" r="35"/>
    <circle cx="402" cy="830" r="35"/>
  </g>
</svg>
