<svg xmlns="http://www.w3.org/2000/svg" viewBox="0 0 1000 1000">
  <rect width="1000" height="1000" fill="#065a6e"/>
  <g stroke="#ffffff" stroke-linecap="round" fill="none">
    <line x1="590.41" y1="117.77" x2="807.85" y2="252.81" stroke-width="20.60"/>
    <line x1="590.41" y1="117.77" x2="439.35" y2="335.20" stroke-width="20.60"/>
    <line x1="242.51" y1="335.20" x2="439.35" y2="335.20" stroke-width="20.60"/>
    <line x1="807.85" y1="252.81" x2="734.60" y2="525.18" stroke-width="20.60"/>
    <line x1="807.85" y1="252.81" x2="537.77" y2="543.49" stroke-width="20.60"/>
    <line x1="242.51" y1="335.20" x2="375.26" y2="557.22" stroke-width="20.60"/>
    <line x1="439.35" y1="335.20" x2="537.77" y2="543.49" stroke-width="20.60"/>
    <line x1="439.35" y1="335.20" x2="734.60" y2="525.18" stroke-width="20.60"/>
    <line x1="734.60" y1="525.18" x2="537.77" y2="543.49" stroke-width="20.60"/>
    <line x1="537.77" y1="543.49" x2="375.26" y2="557.22" stroke-width="20.60"/>
    <line x1="734.60" y1="525.18" x2="375.26" y2="557.22" stroke-width="20.60"/>
    <line x1="734.60" y1="525.18" x2="695.69" y2="774.66" stroke-width="20.60"/>
    <line x1="537.77" y1="543.49" x2="695.69" y2="774.66" stroke-width="20.60"/>
    <line x1="537.77" y1="543.49" x2="377.55" y2="879.95" stroke-width="20.60"/>
    <line x1="734.60" y1="525.18" x2="377.55" y2="879.95" stroke-width="20.60"/>
    <line x1="375.26" y1="557.22" x2="192.15" y2="802.13" stroke-width="20.60"/>
    <line x1="695.69" y1="774.66" x2="377.55" y2="879.95" stroke-width="20.60"/>
    <line x1="192.15" y1="802.13" x2="377.55" y2="879.95" stroke-width="20.60"/>
  </g>
  <g fill="#ffffff">
    <circle cx="590.41" cy="117.77" r="37.77"/>
    <circle cx="807.85" cy="252.81" r="40.05"/>
    <circle cx="242.51" cy="335.20" r="40.05"/>
    <circle cx="439.35" cy="335.20" r="37.77"/>
    <circle cx="734.60" cy="525.18" r="40.05"/>
    <circle cx="537.77" cy="543.49" r="40.05"/>
    <circle cx="375.26" cy="557.22" r="32.04"/>
    <circle cx="695.69" cy="774.66" r="40.05"/>
    <circle cx="192.15" cy="802.13" r="40.05"/>
    <circle cx="377.55" cy="879.95" r="40.05"/>
  </g>
</svg>